<svg width="418" height="256" viewBox="0 0 418 256" fill="none" xmlns="http://www.w3.org/2000/svg">
<g clip-path="url(#clip0_105_3)">
<rect width="418" height="256" fill="url(#paint0_linear_105_3)"/>
<path d="M39.8899 44.1818V66H37.8977V44.1818H39.8899ZM47.1928 55.7727V66H45.2965V49.6364H47.1396V52.2038H47.31C47.6935 51.3658 48.2901 50.6946 49.0998 50.1903C49.9165 49.679 50.9251 49.4233 52.1254 49.4233C53.2262 49.4233 54.1921 49.6541 55.0231 50.1158C55.8612 50.5703 56.511 51.2415 56.9727 52.1293C57.4414 53.017 57.6758 54.1072 57.6758 55.3999V66H55.7795V55.517C55.7795 54.1747 55.4031 53.1129 54.6502 52.3317C53.9045 51.5504 52.9031 51.1598 51.646 51.1598C50.7866 51.1598 50.0231 51.3445 49.3555 51.7138C48.6879 52.0831 48.1587 52.6158 47.7681 53.3118C47.3846 54.0007 47.1928 54.821 47.1928 55.7727ZM75.6774 66.3729C74.6902 66.3729 73.7882 66.1811 72.9714 65.7976C72.1547 65.407 71.5048 64.8459 71.0218 64.1143C70.5389 63.3757 70.2974 62.4808 70.2974 61.4297C70.2974 60.62 70.4501 59.9382 70.7555 59.3842C71.0609 58.8303 71.4941 58.3757 72.0552 58.0206C72.6163 57.6655 73.2804 57.3849 74.0474 57.179C74.8145 56.973 75.6596 56.8132 76.5829 56.6996C77.4991 56.5859 78.2733 56.4865 78.9054 56.4013C79.5446 56.3161 80.0311 56.1811 80.3649 55.9964C80.6987 55.8118 80.8656 55.5135 80.8656 55.1016V54.718C80.8656 53.603 80.5318 52.7259 79.8642 52.0866C79.2037 51.4403 78.252 51.1172 77.0091 51.1172C75.8301 51.1172 74.8677 51.3764 74.122 51.8949C73.3833 52.4134 72.8649 53.0241 72.5666 53.7273L70.7662 53.0774C71.1355 52.1825 71.6468 51.4687 72.3002 50.9361C72.9537 50.3963 73.6852 50.0092 74.4949 49.7749C75.3045 49.5334 76.1248 49.4126 76.9558 49.4126C77.5808 49.4126 78.2306 49.4943 78.9054 49.6577C79.5872 49.821 80.2193 50.1051 80.8017 50.5099C81.3841 50.9077 81.8564 51.4652 82.2186 52.1825C82.5808 52.8928 82.7619 53.7947 82.7619 54.8885V66H80.8656V63.4112H80.7484C80.5211 63.8942 80.1838 64.3629 79.7363 64.8175C79.2889 65.272 78.7278 65.6449 78.0531 65.9361C77.3784 66.2273 76.5865 66.3729 75.6774 66.3729ZM75.9331 64.6364C76.9416 64.6364 77.8152 64.4126 78.5538 63.9652C79.2924 63.5178 79.8606 62.9247 80.2583 62.1861C80.6632 61.4403 80.8656 60.62 80.8656 59.7251V57.3601C80.7235 57.495 80.4856 57.6158 80.1518 57.7223C79.8251 57.8288 79.4451 57.9247 79.0119 58.0099C78.5858 58.0881 78.1596 58.1555 77.7335 58.2124C77.3074 58.2692 76.9238 58.3189 76.5829 58.3615C75.6596 58.4751 74.8713 58.6527 74.2179 58.8942C73.5645 59.1357 73.0637 59.4695 72.7157 59.8956C72.3677 60.3146 72.1937 60.8544 72.1937 61.5149C72.1937 62.5092 72.5488 63.2798 73.2591 63.8267C73.9693 64.3665 74.8606 64.6364 75.9331 64.6364ZM89.7026 55.7727V66H87.8063V49.6364H89.6493V52.2038H89.8198C90.2033 51.3658 90.7999 50.6946 91.6096 50.1903C92.4263 49.679 93.4348 49.4233 94.6351 49.4233C95.736 49.4233 96.7019 49.6541 97.5328 50.1158C98.3709 50.5703 99.0208 51.2415 99.4824 52.1293C99.9512 53.017 100.186 54.1072 100.186 55.3999V66H98.2892V55.517C98.2892 54.1747 97.9128 53.1129 97.16 52.3317C96.4142 51.5504 95.4128 51.1598 94.1557 51.1598C93.2963 51.1598 92.5328 51.3445 91.8652 51.7138C91.1976 52.0831 90.6685 52.6158 90.2779 53.3118C89.8944 54.0007 89.7026 54.821 89.7026 55.7727ZM119.977 66.3409C118.564 66.3409 117.314 65.9822 116.227 65.2649C115.147 64.5476 114.302 63.5568 113.691 62.2926C113.081 61.0213 112.775 59.5547 112.775 57.8928C112.775 56.2166 113.081 54.7429 113.691 53.4716C114.302 52.1932 115.147 51.1989 116.227 50.4886C117.314 49.7713 118.564 49.4126 119.977 49.4126C121.39 49.4126 122.637 49.7713 123.716 50.4886C124.796 51.206 125.641 52.2003 126.252 53.4716C126.87 54.7429 127.179 56.2166 127.179 57.8928C127.179 59.5547 126.873 61.0213 126.262 62.2926C125.652 63.5568 124.803 64.5476 123.716 65.2649C122.637 65.9822 121.39 66.3409 119.977 66.3409ZM119.977 64.6044C121.113 64.6044 122.076 64.299 122.864 63.6882C123.652 63.0774 124.249 62.2642 124.654 61.2486C125.066 60.233 125.272 59.1143 125.272 57.8928C125.272 56.6712 125.066 55.549 124.654 54.5263C124.249 53.5036 123.652 52.6832 122.864 52.0653C122.076 51.4474 121.113 51.1385 119.977 51.1385C118.848 51.1385 117.885 51.4474 117.09 52.0653C116.301 52.6832 115.701 53.5036 115.289 54.5263C114.885 55.549 114.682 56.6712 114.682 57.8928C114.682 59.1143 114.885 60.233 115.289 61.2486C115.701 62.2642 116.301 63.0774 117.09 63.6882C117.878 64.299 118.841 64.6044 119.977 64.6044ZM131.341 72.1364V49.6364H133.184V52.7578H133.408C133.635 52.2678 133.948 51.767 134.346 51.2557C134.743 50.7372 135.269 50.3004 135.922 49.9453C136.583 49.5902 137.414 49.4126 138.415 49.4126C139.765 49.4126 140.944 49.7678 141.952 50.478C142.968 51.1811 143.756 52.1683 144.317 53.4396C144.885 54.7038 145.17 56.1776 145.17 57.8608C145.17 59.5511 144.885 61.032 144.317 62.3033C143.756 63.5746 142.968 64.5653 141.952 65.2756C140.944 65.9858 139.772 66.3409 138.437 66.3409C137.449 66.3409 136.622 66.1634 135.954 65.8082C135.294 65.4531 134.758 65.0163 134.346 64.4979C133.941 63.9723 133.628 63.4609 133.408 62.9638H133.238V72.1364H131.341ZM133.216 57.8288C133.216 59.1499 133.412 60.3217 133.802 61.3445C134.2 62.3601 134.768 63.1591 135.507 63.7415C136.253 64.3168 137.155 64.6044 138.213 64.6044C139.3 64.6044 140.216 64.3061 140.961 63.7095C141.714 63.1058 142.286 62.2926 142.677 61.2699C143.074 60.2472 143.273 59.1001 143.273 57.8288C143.273 56.5717 143.078 55.4389 142.687 54.4304C142.304 53.4219 141.736 52.6229 140.983 52.0334C140.23 51.4368 139.307 51.1385 138.213 51.1385C137.148 51.1385 136.242 51.4261 135.496 52.0014C134.751 52.5696 134.182 53.358 133.792 54.3665C133.408 55.3679 133.216 56.522 133.216 57.8288ZM155.775 49.6364V51.2876H147.966V49.6364H155.775ZM150.406 45.7159H152.313V61.728C152.313 62.4098 152.43 62.946 152.664 63.3366C152.899 63.7202 153.204 63.9936 153.58 64.157C153.957 64.3132 154.358 64.3913 154.784 64.3913C155.033 64.3913 155.246 64.3771 155.423 64.3487C155.601 64.3132 155.757 64.2777 155.892 64.2422L156.297 65.9574C156.112 66.0284 155.885 66.0923 155.615 66.1491C155.345 66.2131 155.012 66.245 154.614 66.245C153.918 66.245 153.247 66.0923 152.6 65.7869C151.961 65.4815 151.436 65.027 151.024 64.4233C150.612 63.8196 150.406 63.0703 150.406 62.1754V45.7159ZM160.103 66V49.6364H162.01V66H160.103ZM161.072 46.8239C160.682 46.8239 160.348 46.6925 160.071 46.4297C159.794 46.1598 159.656 45.8366 159.656 45.4602C159.656 45.0838 159.794 44.7642 160.071 44.5014C160.348 44.2315 160.682 44.0966 161.072 44.0966C161.463 44.0966 161.797 44.2315 162.074 44.5014C162.351 44.7642 162.489 45.0838 162.489 45.4602C162.489 45.8366 162.351 46.1598 162.074 46.4297C161.797 46.6925 161.463 46.8239 161.072 46.8239ZM167.025 66V49.6364H168.868V52.1506H169.039C169.365 51.3054 169.909 50.6413 170.669 50.1584C171.436 49.6683 172.355 49.4233 173.428 49.4233C174.557 49.4233 175.484 49.6896 176.208 50.2223C176.94 50.7479 177.487 51.4723 177.849 52.3956H177.987C178.357 51.4865 178.957 50.7656 179.788 50.233C180.626 49.6932 181.642 49.4233 182.835 49.4233C184.355 49.4233 185.555 49.9027 186.436 50.8615C187.316 51.8132 187.757 53.2053 187.757 55.0376V66H185.86V55.0376C185.86 53.745 185.53 52.7756 184.869 52.1293C184.209 51.483 183.339 51.1598 182.259 51.1598C181.009 51.1598 180.047 51.5433 179.372 52.3104C178.698 53.0774 178.36 54.0504 178.36 55.2294V66H176.421V54.8672C176.421 53.7592 176.112 52.8643 175.494 52.1825C174.877 51.5007 174.007 51.1598 172.884 51.1598C172.132 51.1598 171.453 51.3445 170.85 51.7138C170.253 52.0831 169.781 52.598 169.433 53.2585C169.092 53.9119 168.921 54.6648 168.921 55.517V66H167.025ZM192.798 66V49.6364H194.705V66H192.798ZM193.768 46.8239C193.377 46.8239 193.043 46.6925 192.766 46.4297C192.489 46.1598 192.351 45.8366 192.351 45.4602C192.351 45.0838 192.489 44.7642 192.766 44.5014C193.043 44.2315 193.377 44.0966 193.768 44.0966C194.158 44.0966 194.492 44.2315 194.769 44.5014C195.046 44.7642 195.185 45.0838 195.185 45.4602C195.185 45.8366 195.046 46.1598 194.769 46.4297C194.492 46.6925 194.158 46.8239 193.768 46.8239ZM199.209 66V64.4979L208.669 51.5646V51.4261H199.614V49.6364H211.109V51.2024L201.819 64.0717V64.2102H211.45V66H199.209ZM221.776 66.3409C220.249 66.3409 218.928 65.9858 217.812 65.2756C216.697 64.5582 215.835 63.5675 215.224 62.3033C214.62 61.032 214.318 59.5689 214.318 57.9141C214.318 56.2663 214.62 54.8033 215.224 53.5249C215.835 52.2393 216.676 51.2344 217.749 50.5099C218.828 49.7784 220.075 49.4126 221.488 49.4126C222.376 49.4126 223.232 49.576 224.055 49.9027C224.879 50.2223 225.618 50.7159 226.271 51.3835C226.932 52.044 227.454 52.8786 227.837 53.8871C228.221 54.8885 228.413 56.0746 228.413 57.4453V58.3828H215.629V56.7102H226.474C226.474 55.6591 226.261 54.7145 225.835 53.8764C225.415 53.0312 224.83 52.3636 224.077 51.8736C223.331 51.3835 222.468 51.1385 221.488 51.1385C220.451 51.1385 219.538 51.4155 218.75 51.9695C217.962 52.5234 217.344 53.255 216.896 54.1641C216.456 55.0732 216.232 56.0675 216.225 57.147V58.1484C216.225 59.4482 216.449 60.5845 216.896 61.5575C217.351 62.5234 217.994 63.2727 218.825 63.8054C219.656 64.3381 220.639 64.6044 221.776 64.6044C222.55 64.6044 223.228 64.4837 223.81 64.2422C224.4 64.0007 224.893 63.6776 225.291 63.2727C225.696 62.8608 226.001 62.4098 226.207 61.9197L228.008 62.5057C227.759 63.1946 227.351 63.8303 226.783 64.4126C226.222 64.995 225.518 65.4638 224.673 65.8189C223.835 66.1669 222.869 66.3409 221.776 66.3409ZM238.483 66.3409C237.14 66.3409 235.965 65.9858 234.956 65.2756C233.948 64.5653 233.16 63.5746 232.591 62.3033C232.03 61.032 231.75 59.5511 231.75 57.8608C231.75 56.1776 232.03 54.7038 232.591 53.4396C233.16 52.1683 233.952 51.1811 234.967 50.478C235.983 49.7678 237.165 49.4126 238.515 49.4126C239.509 49.4126 240.336 49.5902 240.997 49.9453C241.657 50.2933 242.187 50.7266 242.584 51.245C242.982 51.7635 243.291 52.2678 243.511 52.7578H243.682V44.1818H245.589V66H243.735V62.9638H243.511C243.291 63.4609 242.979 63.9723 242.574 64.4979C242.169 65.0163 241.633 65.4531 240.965 65.8082C240.305 66.1634 239.477 66.3409 238.483 66.3409ZM238.706 64.6044C239.765 64.6044 240.667 64.3168 241.412 63.7415C242.158 63.1591 242.726 62.3601 243.117 61.3445C243.515 60.3217 243.714 59.1499 243.714 57.8288C243.714 56.522 243.518 55.3679 243.128 54.3665C242.737 53.358 242.169 52.5696 241.423 52.0014C240.677 51.4261 239.772 51.1385 238.706 51.1385C237.613 51.1385 236.689 51.4368 235.937 52.0334C235.191 52.6229 234.623 53.4219 234.232 54.4304C233.849 55.4389 233.657 56.5717 233.657 57.8288C233.657 59.1001 233.852 60.2472 234.243 61.2699C234.633 62.2926 235.202 63.1058 235.947 63.7095C236.7 64.3061 237.62 64.6044 238.706 64.6044ZM259.822 66V44.1818H261.729V52.7578H261.899C262.112 52.2678 262.417 51.7635 262.815 51.245C263.22 50.7266 263.749 50.2933 264.403 49.9453C265.063 49.5902 265.894 49.4126 266.895 49.4126C268.238 49.4126 269.417 49.7678 270.432 50.478C271.448 51.1811 272.24 52.1683 272.808 53.4396C273.376 54.7038 273.66 56.1776 273.66 57.8608C273.66 59.5511 273.376 61.032 272.808 62.3033C272.247 63.5746 271.459 64.5653 270.443 65.2756C269.434 65.9858 268.263 66.3409 266.927 66.3409C265.933 66.3409 265.102 66.1634 264.434 65.8082C263.774 65.4531 263.241 65.0163 262.836 64.4979C262.432 63.9723 262.119 63.4609 261.899 62.9638H261.665V66H259.822ZM261.697 57.8288C261.697 59.1499 261.892 60.3217 262.282 61.3445C262.68 62.3601 263.248 63.1591 263.987 63.7415C264.733 64.3168 265.635 64.6044 266.693 64.6044C267.78 64.6044 268.699 64.3061 269.452 63.7095C270.205 63.1058 270.777 62.2926 271.167 61.2699C271.558 60.2472 271.753 59.1001 271.753 57.8288C271.753 56.5717 271.558 55.4389 271.167 54.4304C270.784 53.4219 270.216 52.6229 269.463 52.0334C268.71 51.4368 267.787 51.1385 266.693 51.1385C265.628 51.1385 264.722 51.4261 263.976 52.0014C263.238 52.5696 262.673 53.358 262.282 54.3665C261.892 55.3679 261.697 56.522 261.697 57.8288ZM288.224 59.7464V49.6364H290.12V66H288.224V63.2834H288.074C287.691 64.1214 287.084 64.821 286.253 65.3821C285.422 65.9361 284.406 66.2131 283.206 66.2131C282.162 66.2131 281.235 65.9858 280.425 65.5312C279.616 65.0696 278.98 64.3949 278.518 63.5071C278.057 62.6193 277.826 61.5291 277.826 60.2365V49.6364H279.722V60.1193C279.722 61.3977 280.099 62.4276 280.851 63.2088C281.604 63.983 282.57 64.37 283.749 64.37C284.488 64.37 285.198 64.1925 285.88 63.8374C286.562 63.4822 287.123 62.9638 287.563 62.282C288.003 61.593 288.224 60.7479 288.224 59.7464ZM295.162 66V49.6364H297.069V66H295.162ZM296.131 46.8239C295.74 46.8239 295.407 46.6925 295.13 46.4297C294.853 46.1598 294.714 45.8366 294.714 45.4602C294.714 45.0838 294.853 44.7642 295.13 44.5014C295.407 44.2315 295.74 44.0966 296.131 44.0966C296.522 44.0966 296.855 44.2315 297.132 44.5014C297.409 44.7642 297.548 45.0838 297.548 45.4602C297.548 45.8366 297.409 46.1598 297.132 46.4297C296.855 46.6925 296.522 46.8239 296.131 46.8239ZM303.98 44.1818V66H302.084V44.1818H303.98ZM314.889 66.3409C313.547 66.3409 312.371 65.9858 311.363 65.2756C310.354 64.5653 309.566 63.5746 308.998 62.3033C308.437 61.032 308.156 59.5511 308.156 57.8608C308.156 56.1776 308.437 54.7038 308.998 53.4396C309.566 52.1683 310.358 51.1811 311.373 50.478C312.389 49.7678 313.572 49.4126 314.921 49.4126C315.915 49.4126 316.743 49.5902 317.403 49.9453C318.064 50.2933 318.593 50.7266 318.991 51.245C319.388 51.7635 319.697 52.2678 319.917 52.7578H320.088V44.1818H321.995V66H320.141V62.9638H319.917C319.697 63.4609 319.385 63.9723 318.98 64.4979C318.575 65.0163 318.039 65.4531 317.371 65.8082C316.711 66.1634 315.883 66.3409 314.889 66.3409ZM315.113 64.6044C316.171 64.6044 317.073 64.3168 317.819 63.7415C318.564 63.1591 319.133 62.3601 319.523 61.3445C319.921 60.3217 320.12 59.1499 320.12 57.8288C320.12 56.522 319.925 55.3679 319.534 54.3665C319.143 53.358 318.575 52.5696 317.829 52.0014C317.084 51.4261 316.178 51.1385 315.113 51.1385C314.019 51.1385 313.096 51.4368 312.343 52.0334C311.597 52.6229 311.029 53.4219 310.638 54.4304C310.255 55.4389 310.063 56.5717 310.063 57.8288C310.063 59.1001 310.258 60.2472 310.649 61.2699C311.04 62.2926 311.608 63.1058 312.354 63.7095C313.106 64.3061 314.026 64.6044 315.113 64.6044ZM43.9489 85.6364V87.2876H36.1399V85.6364H43.9489ZM38.5795 81.7159H40.4865V97.728C40.4865 98.4098 40.6037 98.946 40.8381 99.3366C41.0724 99.7202 41.3778 99.9936 41.7543 100.157C42.1307 100.313 42.532 100.391 42.9581 100.391C43.2067 100.391 43.4197 100.377 43.5973 100.349C43.7749 100.313 43.9311 100.278 44.0661 100.242L44.4709 101.957C44.2862 102.028 44.0589 102.092 43.7891 102.149C43.5192 102.213 43.1854 102.245 42.7876 102.245C42.0916 102.245 41.4205 102.092 40.7741 101.787C40.1349 101.482 39.6094 101.027 39.1974 100.423C38.7855 99.8196 38.5795 99.0703 38.5795 98.1754V81.7159ZM50.5034 91.7727V102H48.6071V80.1818H50.5034V88.2038H50.6738C51.0574 87.3587 51.6504 86.6839 52.4529 86.1797C53.2626 85.6754 54.2853 85.4233 55.5211 85.4233C56.6291 85.4233 57.6021 85.6506 58.4402 86.1051C59.2782 86.5597 59.9316 87.2308 60.4004 88.1186C60.8691 89.0064 61.1035 90.1001 61.1035 91.3999V102H59.1966V91.517C59.1966 90.1676 58.8201 89.1058 58.0673 88.3317C57.3216 87.5504 56.313 87.1598 55.0417 87.1598C54.1681 87.1598 53.3904 87.3445 52.7086 87.7138C52.0268 88.0831 51.487 88.6158 51.0893 89.3118C50.6987 90.0007 50.5034 90.821 50.5034 91.7727ZM66.1186 102V85.6364H68.0256V102H66.1186ZM67.0881 82.8239C66.6974 82.8239 66.3636 82.6925 66.0866 82.4297C65.8097 82.1598 65.6712 81.8366 65.6712 81.4602C65.6712 81.0838 65.8097 80.7642 66.0866 80.5014C66.3636 80.2315 66.6974 80.0966 67.0881 80.0966C67.4787 80.0966 67.8125 80.2315 68.0895 80.5014C68.3665 80.7642 68.505 81.0838 68.505 81.4602C68.505 81.8366 68.3665 82.1598 68.0895 82.4297C67.8125 82.6925 67.4787 82.8239 67.0881 82.8239ZM84.035 89.2266L82.2985 89.7166C82.128 89.2266 81.8865 88.7827 81.574 88.3849C81.2615 87.9872 80.8532 87.6712 80.3489 87.4368C79.8517 87.2024 79.2338 87.0852 78.4952 87.0852C77.3873 87.0852 76.4782 87.348 75.7679 87.8736C75.0577 88.3991 74.7026 89.0774 74.7026 89.9084C74.7026 90.6115 74.9441 91.1832 75.427 91.6236C75.9171 92.0568 76.6699 92.4013 77.6855 92.657L80.1571 93.2642C81.5279 93.598 82.5542 94.1271 83.236 94.8516C83.9249 95.576 84.2694 96.4851 84.2694 97.5788C84.2694 98.5021 84.0137 99.3224 83.5023 100.04C82.9909 100.757 82.2772 101.322 81.361 101.734C80.4519 102.138 79.3972 102.341 78.1969 102.341C76.5989 102.341 75.2814 101.982 74.2445 101.265C73.2076 100.54 72.5435 99.4964 72.2523 98.1328L74.074 97.6854C74.3084 98.6584 74.7665 99.3935 75.4483 99.8906C76.1373 100.388 77.0428 100.636 78.165 100.636C79.4221 100.636 80.427 100.356 81.1799 99.7947C81.9327 99.2266 82.3091 98.5163 82.3091 97.6641C82.3091 97.0036 82.089 96.4496 81.6486 96.0021C81.2083 95.5476 80.5407 95.2138 79.6458 95.0007L76.9718 94.3615C75.5513 94.0206 74.5002 93.4808 73.8184 92.7422C73.1365 92.0036 72.7956 91.0874 72.7956 89.9936C72.7956 89.0916 73.0407 88.2997 73.5307 87.6179C74.0208 86.929 74.6955 86.3892 75.5549 85.9986C76.4142 85.608 77.3944 85.4126 78.4952 85.4126C79.9938 85.4126 81.1905 85.7536 82.0854 86.4354C82.9874 87.1101 83.6373 88.0405 84.035 89.2266ZM96.8803 102V85.6364H98.7873V102H96.8803ZM97.8498 82.8239C97.4592 82.8239 97.1254 82.6925 96.8484 82.4297C96.5714 82.1598 96.4329 81.8366 96.4329 81.4602C96.4329 81.0838 96.5714 80.7642 96.8484 80.5014C97.1254 80.2315 97.4592 80.0966 97.8498 80.0966C98.2404 80.0966 98.5742 80.2315 98.8512 80.5014C99.1282 80.7642 99.2667 81.0838 99.2667 81.4602C99.2667 81.8366 99.1282 82.1598 98.8512 82.4297C98.5742 82.6925 98.2404 82.8239 97.8498 82.8239ZM103.802 102V85.6364H105.645V88.1506H105.816C106.143 87.3054 106.686 86.6413 107.446 86.1584C108.213 85.6683 109.133 85.4233 110.205 85.4233C111.334 85.4233 112.261 85.6896 112.986 86.2223C113.717 86.7479 114.264 87.4723 114.626 88.3956H114.765C115.134 87.4865 115.734 86.7656 116.565 86.233C117.403 85.6932 118.419 85.4233 119.612 85.4233C121.132 85.4233 122.332 85.9027 123.213 86.8615C124.094 87.8132 124.534 89.2053 124.534 91.0376V102H122.638V91.0376C122.638 89.745 122.307 88.7756 121.647 88.1293C120.986 87.483 120.116 87.1598 119.037 87.1598C117.787 87.1598 116.824 87.5433 116.15 88.3104C115.475 89.0774 115.138 90.0504 115.138 91.2294V102H113.199V90.8672C113.199 89.7592 112.89 88.8643 112.272 88.1825C111.654 87.5007 110.784 87.1598 109.662 87.1598C108.909 87.1598 108.231 87.3445 107.627 87.7138C107.03 88.0831 106.558 88.598 106.21 89.2585C105.869 89.9119 105.699 90.6648 105.699 91.517V102H103.802ZM134.125 102.373C133.137 102.373 132.235 102.181 131.419 101.798C130.602 101.407 129.952 100.846 129.469 100.114C128.986 99.3757 128.745 98.4808 128.745 97.4297C128.745 96.62 128.897 95.9382 129.203 95.3842C129.508 94.8303 129.941 94.3757 130.502 94.0206C131.064 93.6655 131.728 93.3849 132.495 93.179C133.262 92.973 134.107 92.8132 135.03 92.6996C135.946 92.5859 136.721 92.4865 137.353 92.4013C137.992 92.3161 138.478 92.1811 138.812 91.9964C139.146 91.8118 139.313 91.5135 139.313 91.1016V90.718C139.313 89.603 138.979 88.7259 138.311 88.0866C137.651 87.4403 136.699 87.1172 135.456 87.1172C134.277 87.1172 133.315 87.3764 132.569 87.8949C131.831 88.4134 131.312 89.0241 131.014 89.7273L129.213 89.0774C129.583 88.1825 130.094 87.4687 130.748 86.9361C131.401 86.3963 132.132 86.0092 132.942 85.7749C133.752 85.5334 134.572 85.4126 135.403 85.4126C136.028 85.4126 136.678 85.4943 137.353 85.6577C138.034 85.821 138.667 86.1051 139.249 86.5099C139.831 86.9077 140.304 87.4652 140.666 88.1825C141.028 88.8928 141.209 89.7947 141.209 90.8885V102H139.313V99.4112H139.196C138.968 99.8942 138.631 100.363 138.184 100.817C137.736 101.272 137.175 101.645 136.5 101.936C135.826 102.227 135.034 102.373 134.125 102.373ZM134.38 100.636C135.389 100.636 136.262 100.413 137.001 99.9652C137.74 99.5178 138.308 98.9247 138.706 98.1861C139.11 97.4403 139.313 96.62 139.313 95.7251V93.3601C139.171 93.495 138.933 93.6158 138.599 93.7223C138.272 93.8288 137.892 93.9247 137.459 94.0099C137.033 94.0881 136.607 94.1555 136.181 94.2124C135.755 94.2692 135.371 94.3189 135.03 94.3615C134.107 94.4751 133.319 94.6527 132.665 94.8942C132.012 95.1357 131.511 95.4695 131.163 95.8956C130.815 96.3146 130.641 96.8544 130.641 97.5149C130.641 98.5092 130.996 99.2798 131.706 99.8267C132.417 100.366 133.308 100.636 134.38 100.636ZM152.496 108.477C151.381 108.477 150.405 108.332 149.567 108.04C148.729 107.756 148.022 107.366 147.447 106.869C146.871 106.371 146.424 105.814 146.104 105.196L147.66 104.173C147.894 104.585 148.207 104.99 148.597 105.388C148.995 105.786 149.51 106.116 150.142 106.379C150.781 106.641 151.566 106.773 152.496 106.773C153.945 106.773 155.114 106.411 156.001 105.686C156.896 104.962 157.344 103.836 157.344 102.309V98.6229H157.173C156.953 99.12 156.637 99.6172 156.225 100.114C155.813 100.604 155.273 101.013 154.606 101.339C153.945 101.666 153.125 101.83 152.145 101.83C150.838 101.83 149.677 101.506 148.661 100.86C147.653 100.214 146.857 99.2905 146.275 98.0902C145.7 96.8828 145.412 95.4446 145.412 93.7756C145.412 92.1207 145.692 90.6648 146.254 89.4077C146.822 88.1506 147.614 87.1705 148.629 86.4673C149.645 85.7642 150.827 85.4126 152.177 85.4126C153.178 85.4126 154.009 85.5902 154.67 85.9453C155.33 86.2933 155.859 86.7266 156.257 87.245C156.662 87.7635 156.978 88.2678 157.205 88.7578H157.397V85.6364H159.251V102.426C159.251 103.811 158.956 104.951 158.366 105.846C157.777 106.741 156.974 107.401 155.959 107.827C154.943 108.261 153.789 108.477 152.496 108.477ZM152.369 100.093C153.42 100.093 154.318 99.8409 155.064 99.3366C155.81 98.8253 156.381 98.0937 156.779 97.142C157.177 96.1903 157.376 95.0575 157.376 93.7436C157.376 92.4652 157.18 91.3324 156.79 90.3452C156.399 89.3509 155.831 88.5696 155.085 88.0014C154.347 87.4261 153.441 87.1385 152.369 87.1385C151.275 87.1385 150.352 87.4332 149.599 88.0227C148.846 88.6122 148.278 89.4077 147.894 90.4091C147.511 91.4034 147.319 92.5149 147.319 93.7436C147.319 94.9936 147.514 96.098 147.905 97.0568C148.295 98.0085 148.867 98.7543 149.62 99.294C150.373 99.8267 151.289 100.093 152.369 100.093ZM170.887 102.341C169.36 102.341 168.039 101.986 166.924 101.276C165.809 100.558 164.946 99.5675 164.335 98.3033C163.731 97.032 163.43 95.5689 163.43 93.9141C163.43 92.2663 163.731 90.8033 164.335 89.5249C164.946 88.2393 165.787 87.2344 166.86 86.5099C167.939 85.7784 169.186 85.4126 170.599 85.4126C171.487 85.4126 172.343 85.576 173.167 85.9027C173.991 86.2223 174.729 86.7159 175.383 87.3835C176.043 88.044 176.565 88.8786 176.949 89.8871C177.332 90.8885 177.524 92.0746 177.524 93.4453V94.3828H164.74V92.7102H175.585C175.585 91.6591 175.372 90.7145 174.946 89.8764C174.527 89.0312 173.941 88.3636 173.188 87.8736C172.442 87.3835 171.579 87.1385 170.599 87.1385C169.562 87.1385 168.65 87.4155 167.861 87.9695C167.073 88.5234 166.455 89.255 166.008 90.1641C165.567 91.0732 165.344 92.0675 165.336 93.147V94.1484C165.336 95.4482 165.56 96.5845 166.008 97.5575C166.462 98.5234 167.105 99.2727 167.936 99.8054C168.767 100.338 169.751 100.604 170.887 100.604C171.661 100.604 172.339 100.484 172.922 100.242C173.511 100.001 174.005 99.6776 174.403 99.2727C174.807 98.8608 175.113 98.4098 175.319 97.9197L177.119 98.5057C176.871 99.1946 176.462 99.8303 175.894 100.413C175.333 100.995 174.63 101.464 173.785 101.819C172.947 102.167 171.981 102.341 170.887 102.341ZM193.773 102L188.83 85.6364H190.833L194.711 99.1342H194.849L198.716 85.6364H200.73L204.565 99.1023H204.714L208.592 85.6364H210.595L205.652 102H203.691L199.814 88.5874H199.611L195.733 102H193.773ZM214.302 102V85.6364H216.209V102H214.302ZM215.272 82.8239C214.881 82.8239 214.547 82.6925 214.27 82.4297C213.993 82.1598 213.855 81.8366 213.855 81.4602C213.855 81.0838 213.993 80.7642 214.27 80.5014C214.547 80.2315 214.881 80.0966 215.272 80.0966C215.662 80.0966 215.996 80.2315 216.273 80.5014C216.55 80.7642 216.689 81.0838 216.689 81.4602C216.689 81.8366 216.55 82.1598 216.273 82.4297C215.996 82.6925 215.662 82.8239 215.272 82.8239ZM223.121 80.1818V102H221.224V80.1818H223.121ZM230.035 80.1818V102H228.138V80.1818H230.035ZM245.386 91.7727V102H243.49V80.1818H245.386V88.2038H245.557C245.94 87.3587 246.533 86.6839 247.336 86.1797C248.145 85.6754 249.168 85.4233 250.404 85.4233C251.512 85.4233 252.485 85.6506 253.323 86.1051C254.161 86.5597 254.814 87.2308 255.283 88.1186C255.752 89.0064 255.986 90.1001 255.986 91.3999V102H254.079V91.517C254.079 90.1676 253.703 89.1058 252.95 88.3317C252.204 87.5504 251.196 87.1598 249.925 87.1598C249.051 87.1598 248.273 87.3445 247.591 87.7138C246.91 88.0831 246.37 88.6158 245.972 89.3118C245.581 90.0007 245.386 90.821 245.386 91.7727ZM265.55 102.373C264.563 102.373 263.661 102.181 262.844 101.798C262.028 101.407 261.378 100.846 260.895 100.114C260.412 99.3757 260.17 98.4808 260.17 97.4297C260.17 96.62 260.323 95.9382 260.629 95.3842C260.934 94.8303 261.367 94.3757 261.928 94.0206C262.489 93.6655 263.153 93.3849 263.92 93.179C264.688 92.973 265.533 92.8132 266.456 92.6996C267.372 92.5859 268.146 92.4865 268.778 92.4013C269.418 92.3161 269.904 92.1811 270.238 91.9964C270.572 91.8118 270.739 91.5135 270.739 91.1016V90.718C270.739 89.603 270.405 88.7259 269.737 88.0866C269.077 87.4403 268.125 87.1172 266.882 87.1172C265.703 87.1172 264.741 87.3764 263.995 87.8949C263.256 88.4134 262.738 89.0241 262.44 89.7273L260.639 89.0774C261.009 88.1825 261.52 87.4687 262.173 86.9361C262.827 86.3963 263.558 86.0092 264.368 85.7749C265.178 85.5334 265.998 85.4126 266.829 85.4126C267.454 85.4126 268.104 85.4943 268.778 85.6577C269.46 85.821 270.092 86.1051 270.675 86.5099C271.257 86.9077 271.729 87.4652 272.092 88.1825C272.454 88.8928 272.635 89.7947 272.635 90.8885V102H270.739V99.4112H270.621C270.394 99.8942 270.057 100.363 269.609 100.817C269.162 101.272 268.601 101.645 267.926 101.936C267.251 102.227 266.46 102.373 265.55 102.373ZM265.806 100.636C266.815 100.636 267.688 100.413 268.427 99.9652C269.165 99.5178 269.734 98.9247 270.131 98.1861C270.536 97.4403 270.739 96.62 270.739 95.7251V93.3601C270.597 93.495 270.359 93.6158 270.025 93.7223C269.698 93.8288 269.318 93.9247 268.885 94.0099C268.459 94.0881 268.033 94.1555 267.607 94.2124C267.18 94.2692 266.797 94.3189 266.456 94.3615C265.533 94.4751 264.744 94.6527 264.091 94.8942C263.438 95.1357 262.937 95.4695 262.589 95.8956C262.241 96.3146 262.067 96.8544 262.067 97.5149C262.067 98.5092 262.422 99.2798 263.132 99.8267C263.842 100.366 264.734 100.636 265.806 100.636ZM289.76 85.6364L283.784 102H281.76L275.783 85.6364H277.839L282.697 99.4964H282.846L287.704 85.6364H289.76ZM299.5 102.341C297.973 102.341 296.652 101.986 295.537 101.276C294.422 100.558 293.559 99.5675 292.948 98.3033C292.345 97.032 292.043 95.5689 292.043 93.9141C292.043 92.2663 292.345 90.8033 292.948 89.5249C293.559 88.2393 294.401 87.2344 295.473 86.5099C296.553 85.7784 297.799 85.4126 299.213 85.4126C300.1 85.4126 300.956 85.576 301.78 85.9027C302.604 86.2223 303.343 86.7159 303.996 87.3835C304.656 88.044 305.178 88.8786 305.562 89.8871C305.945 90.8885 306.137 92.0746 306.137 93.4453V94.3828H293.353V92.7102H304.198C304.198 91.6591 303.985 90.7145 303.559 89.8764C303.14 89.0312 302.554 88.3636 301.801 87.8736C301.056 87.3835 300.193 87.1385 299.213 87.1385C298.176 87.1385 297.263 87.4155 296.475 87.9695C295.686 88.5234 295.068 89.255 294.621 90.1641C294.181 91.0732 293.957 92.0675 293.95 93.147V94.1484C293.95 95.4482 294.173 96.5845 294.621 97.5575C295.075 98.5234 295.718 99.2727 296.549 99.8054C297.38 100.338 298.364 100.604 299.5 100.604C300.274 100.604 300.953 100.484 301.535 100.242C302.124 100.001 302.618 99.6776 303.016 99.2727C303.421 98.8608 303.726 98.4098 303.932 97.9197L305.732 98.5057C305.484 99.1946 305.075 99.8303 304.507 100.413C303.946 100.995 303.243 101.464 302.398 101.819C301.56 102.167 300.594 102.341 299.5 102.341ZM42.0739 138.373C41.0866 138.373 40.1847 138.181 39.3679 137.798C38.5511 137.407 37.9013 136.846 37.4183 136.114C36.9354 135.376 36.6939 134.481 36.6939 133.43C36.6939 132.62 36.8466 131.938 37.152 131.384C37.4574 130.83 37.8906 130.376 38.4517 130.021C39.0128 129.665 39.6768 129.385 40.4439 129.179C41.2109 128.973 42.0561 128.813 42.9794 128.7C43.8956 128.586 44.6697 128.487 45.3018 128.401C45.9411 128.316 46.4276 128.181 46.7614 127.996C47.0952 127.812 47.2621 127.513 47.2621 127.102V126.718C47.2621 125.603 46.9283 124.726 46.2607 124.087C45.6001 123.44 44.6484 123.117 43.4055 123.117C42.2266 123.117 41.2642 123.376 40.5185 123.895C39.7798 124.413 39.2614 125.024 38.9631 125.727L37.1626 125.077C37.532 124.183 38.0433 123.469 38.6967 122.936C39.3501 122.396 40.0817 122.009 40.8913 121.775C41.701 121.533 42.5213 121.413 43.3523 121.413C43.9773 121.413 44.6271 121.494 45.3018 121.658C45.9837 121.821 46.6158 122.105 47.1982 122.51C47.7805 122.908 48.2528 123.465 48.6151 124.183C48.9773 124.893 49.1584 125.795 49.1584 126.888V138H47.2621V135.411H47.1449C46.9176 135.894 46.5803 136.363 46.1328 136.817C45.6854 137.272 45.1243 137.645 44.4496 137.936C43.7749 138.227 42.983 138.373 42.0739 138.373ZM42.3295 136.636C43.3381 136.636 44.2116 136.413 44.9503 135.965C45.6889 135.518 46.2571 134.925 46.6548 134.186C47.0597 133.44 47.2621 132.62 47.2621 131.725V129.36C47.12 129.495 46.8821 129.616 46.5483 129.722C46.2216 129.829 45.8416 129.925 45.4084 130.01C44.9822 130.088 44.5561 130.156 44.13 130.212C43.7038 130.269 43.3203 130.319 42.9794 130.362C42.0561 130.475 41.2678 130.653 40.6143 130.894C39.9609 131.136 39.4602 131.469 39.1122 131.896C38.7642 132.315 38.5902 132.854 38.5902 133.515C38.5902 134.509 38.9453 135.28 39.6555 135.827C40.3658 136.366 41.2571 136.636 42.3295 136.636ZM72.4414 131.033V121.636H76.9798V138H72.6225V135.028H72.4521C72.0827 135.987 71.4684 136.757 70.609 137.339C69.7567 137.922 68.7163 138.213 67.4876 138.213C66.3938 138.213 65.4315 137.964 64.6005 137.467C63.7695 136.97 63.1197 136.263 62.6509 135.347C62.1893 134.431 61.9549 133.334 61.9478 132.055V121.636H66.4862V131.246C66.4933 132.212 66.7525 132.975 67.2638 133.536C67.7752 134.097 68.4606 134.378 69.32 134.378C69.8668 134.378 70.3782 134.254 70.854 134.005C71.3299 133.749 71.7134 133.373 72.0046 132.876C72.3029 132.379 72.4485 131.764 72.4414 131.033ZM85.1483 128.54V138H80.6099V121.636H84.9352V124.523H85.127C85.4892 123.572 86.0964 122.819 86.9487 122.265C87.801 121.704 88.8343 121.423 90.0488 121.423C91.1852 121.423 92.176 121.672 93.0211 122.169C93.8663 122.666 94.5233 123.376 94.992 124.3C95.4608 125.216 95.6951 126.31 95.6951 127.581V138H91.1568V128.391C91.1639 127.389 90.9082 126.608 90.3897 126.047C89.8713 125.479 89.1575 125.195 88.2484 125.195C87.6376 125.195 87.0978 125.326 86.6291 125.589C86.1674 125.852 85.8052 126.235 85.5424 126.739C85.2868 127.237 85.1554 127.837 85.1483 128.54ZM99.272 138V121.636H103.81V138H99.272ZM101.552 119.527C100.877 119.527 100.298 119.303 99.8153 118.856C99.3395 118.401 99.1016 117.858 99.1016 117.226C99.1016 116.601 99.3395 116.065 99.8153 115.617C100.298 115.163 100.877 114.935 101.552 114.935C102.227 114.935 102.802 115.163 103.278 115.617C103.761 116.065 104.002 116.601 104.002 117.226C104.002 117.858 103.761 118.401 103.278 118.856C102.802 119.303 102.227 119.527 101.552 119.527ZM118.259 144.136V135.379H118.121C117.907 135.834 117.606 136.285 117.215 136.732C116.831 137.173 116.331 137.538 115.713 137.83C115.102 138.121 114.356 138.266 113.476 138.266C112.233 138.266 111.107 137.947 110.099 137.308C109.097 136.661 108.302 135.713 107.712 134.463C107.13 133.206 106.839 131.665 106.839 129.839C106.839 127.964 107.14 126.406 107.744 125.163C108.348 123.913 109.15 122.979 110.152 122.361C111.16 121.736 112.265 121.423 113.465 121.423C114.381 121.423 115.145 121.58 115.756 121.892C116.373 122.197 116.871 122.581 117.247 123.043C117.631 123.497 117.922 123.945 118.121 124.385H118.312V121.636H122.787V144.136H118.259ZM114.914 134.655C115.645 134.655 116.263 134.456 116.768 134.058C117.279 133.653 117.67 133.089 117.939 132.364C118.216 131.64 118.355 130.791 118.355 129.818C118.355 128.845 118.22 128 117.95 127.283C117.68 126.565 117.29 126.011 116.778 125.621C116.267 125.23 115.645 125.035 114.914 125.035C114.168 125.035 113.54 125.237 113.028 125.642C112.517 126.047 112.13 126.608 111.867 127.325C111.604 128.043 111.473 128.874 111.473 129.818C111.473 130.77 111.604 131.612 111.867 132.343C112.137 133.067 112.524 133.636 113.028 134.048C113.54 134.452 114.168 134.655 114.914 134.655ZM136.924 131.033V121.636H141.462V138H137.105V135.028H136.934C136.565 135.987 135.951 136.757 135.091 137.339C134.239 137.922 133.199 138.213 131.97 138.213C130.876 138.213 129.914 137.964 129.083 137.467C128.252 136.97 127.602 136.263 127.133 135.347C126.672 134.431 126.437 133.334 126.43 132.055V121.636H130.969V131.246C130.976 132.212 131.235 132.975 131.746 133.536C132.258 134.097 132.943 134.378 133.802 134.378C134.349 134.378 134.861 134.254 135.336 134.005C135.812 133.749 136.196 133.373 136.487 132.876C136.785 132.379 136.931 131.764 136.924 131.033ZM152.55 138.32C150.866 138.32 149.418 137.979 148.203 137.297C146.996 136.608 146.065 135.635 145.412 134.378C144.759 133.114 144.432 131.619 144.432 129.893C144.432 128.21 144.759 126.732 145.412 125.461C146.065 124.19 146.985 123.199 148.171 122.489C149.364 121.778 150.763 121.423 152.369 121.423C153.448 121.423 154.453 121.597 155.384 121.945C156.321 122.286 157.138 122.801 157.834 123.49C158.537 124.179 159.084 125.045 159.474 126.089C159.865 127.126 160.06 128.341 160.06 129.733V130.979H146.243V128.167H155.788C155.788 127.513 155.646 126.935 155.362 126.43C155.078 125.926 154.684 125.532 154.18 125.248C153.683 124.957 153.104 124.811 152.443 124.811C151.754 124.811 151.143 124.971 150.611 125.29C150.085 125.603 149.673 126.026 149.375 126.558C149.077 127.084 148.924 127.67 148.917 128.316V130.99C148.917 131.8 149.066 132.499 149.364 133.089C149.67 133.678 150.099 134.133 150.653 134.452C151.207 134.772 151.864 134.932 152.624 134.932C153.129 134.932 153.59 134.861 154.009 134.719C154.428 134.577 154.787 134.364 155.085 134.08C155.384 133.795 155.611 133.447 155.767 133.036L159.964 133.312C159.751 134.321 159.315 135.202 158.654 135.955C158.001 136.7 157.156 137.283 156.119 137.702C155.089 138.114 153.899 138.32 152.55 138.32ZM178.885 121.636V123.288H170.842V121.636H178.885ZM173.356 138V119.239C173.356 118.359 173.558 117.616 173.963 117.013C174.375 116.409 174.911 115.951 175.572 115.638C176.232 115.326 176.932 115.17 177.67 115.17C178.168 115.17 178.58 115.212 178.906 115.298C179.24 115.376 179.503 115.454 179.695 115.532L179.141 117.194C178.999 117.151 178.825 117.102 178.619 117.045C178.413 116.988 178.153 116.96 177.841 116.96C177.017 116.96 176.381 117.19 175.934 117.652C175.487 118.114 175.263 118.774 175.263 119.634L175.252 138H173.356ZM182.691 138V121.636H184.598V138H182.691ZM183.66 118.824C183.27 118.824 182.936 118.692 182.659 118.43C182.382 118.16 182.243 117.837 182.243 117.46C182.243 117.084 182.382 116.764 182.659 116.501C182.936 116.232 183.27 116.097 183.66 116.097C184.051 116.097 184.385 116.232 184.662 116.501C184.939 116.764 185.077 117.084 185.077 117.46C185.077 117.837 184.939 118.16 184.662 118.43C184.385 118.692 184.051 118.824 183.66 118.824ZM191.509 116.182V138H189.613V116.182H191.509ZM203.143 138.341C201.616 138.341 200.295 137.986 199.18 137.276C198.065 136.558 197.202 135.567 196.591 134.303C195.987 133.032 195.685 131.569 195.685 129.914C195.685 128.266 195.987 126.803 196.591 125.525C197.202 124.239 198.043 123.234 199.116 122.51C200.195 121.778 201.442 121.413 202.855 121.413C203.743 121.413 204.599 121.576 205.423 121.903C206.246 122.222 206.985 122.716 207.638 123.384C208.299 124.044 208.821 124.879 209.205 125.887C209.588 126.888 209.78 128.075 209.78 129.445V130.383H196.996V128.71H207.841C207.841 127.659 207.628 126.714 207.202 125.876C206.783 125.031 206.197 124.364 205.444 123.874C204.698 123.384 203.835 123.138 202.855 123.138C201.818 123.138 200.906 123.415 200.117 123.969C199.329 124.523 198.711 125.255 198.263 126.164C197.823 127.073 197.599 128.067 197.592 129.147V130.148C197.592 131.448 197.816 132.585 198.263 133.558C198.718 134.523 199.361 135.273 200.192 135.805C201.023 136.338 202.006 136.604 203.143 136.604C203.917 136.604 204.595 136.484 205.178 136.242C205.767 136.001 206.261 135.678 206.658 135.273C207.063 134.861 207.369 134.41 207.575 133.92L209.375 134.506C209.126 135.195 208.718 135.83 208.15 136.413C207.589 136.995 206.886 137.464 206.04 137.819C205.202 138.167 204.237 138.341 203.143 138.341ZM224.292 127.773V138H222.396V121.636H224.239V124.204H224.41C224.793 123.366 225.39 122.695 226.199 122.19C227.016 121.679 228.025 121.423 229.225 121.423C230.326 121.423 231.292 121.654 232.123 122.116C232.961 122.57 233.611 123.241 234.072 124.129C234.541 125.017 234.775 126.107 234.775 127.4V138H232.879V127.517C232.879 126.175 232.503 125.113 231.75 124.332C231.004 123.55 230.003 123.16 228.746 123.16C227.886 123.16 227.123 123.344 226.455 123.714C225.787 124.083 225.258 124.616 224.868 125.312C224.484 126.001 224.292 126.821 224.292 127.773ZM244.339 138.373C243.352 138.373 242.45 138.181 241.634 137.798C240.817 137.407 240.167 136.846 239.684 136.114C239.201 135.376 238.96 134.481 238.96 133.43C238.96 132.62 239.112 131.938 239.418 131.384C239.723 130.83 240.156 130.376 240.717 130.021C241.278 129.665 241.942 129.385 242.71 129.179C243.477 128.973 244.322 128.813 245.245 128.7C246.161 128.586 246.935 128.487 247.567 128.401C248.207 128.316 248.693 128.181 249.027 127.996C249.361 127.812 249.528 127.513 249.528 127.102V126.718C249.528 125.603 249.194 124.726 248.526 124.087C247.866 123.44 246.914 123.117 245.671 123.117C244.492 123.117 243.53 123.376 242.784 123.895C242.045 124.413 241.527 125.024 241.229 125.727L239.428 125.077C239.798 124.183 240.309 123.469 240.962 122.936C241.616 122.396 242.347 122.009 243.157 121.775C243.967 121.533 244.787 121.413 245.618 121.413C246.243 121.413 246.893 121.494 247.567 121.658C248.249 121.821 248.881 122.105 249.464 122.51C250.046 122.908 250.518 123.465 250.881 124.183C251.243 124.893 251.424 125.795 251.424 126.888V138H249.528V135.411H249.411C249.183 135.894 248.846 136.363 248.398 136.817C247.951 137.272 247.39 137.645 246.715 137.936C246.04 138.227 245.249 138.373 244.339 138.373ZM244.595 136.636C245.604 136.636 246.477 136.413 247.216 135.965C247.955 135.518 248.523 134.925 248.92 134.186C249.325 133.44 249.528 132.62 249.528 131.725V129.36C249.386 129.495 249.148 129.616 248.814 129.722C248.487 129.829 248.107 129.925 247.674 130.01C247.248 130.088 246.822 130.156 246.396 130.212C245.969 130.269 245.586 130.319 245.245 130.362C244.322 130.475 243.533 130.653 242.88 130.894C242.227 131.136 241.726 131.469 241.378 131.896C241.03 132.315 240.856 132.854 240.856 133.515C240.856 134.509 241.211 135.28 241.921 135.827C242.631 136.366 243.523 136.636 244.595 136.636ZM256.468 138V121.636H258.311V124.151H258.482C258.809 123.305 259.352 122.641 260.112 122.158C260.879 121.668 261.799 121.423 262.871 121.423C264 121.423 264.927 121.69 265.652 122.222C266.383 122.748 266.93 123.472 267.292 124.396H267.431C267.8 123.487 268.4 122.766 269.231 122.233C270.069 121.693 271.085 121.423 272.278 121.423C273.798 121.423 274.998 121.903 275.879 122.862C276.76 123.813 277.2 125.205 277.2 127.038V138H275.304V127.038C275.304 125.745 274.973 124.776 274.313 124.129C273.652 123.483 272.782 123.16 271.703 123.16C270.453 123.16 269.49 123.543 268.816 124.31C268.141 125.077 267.804 126.05 267.804 127.229V138H265.865V126.867C265.865 125.759 265.556 124.864 264.938 124.183C264.32 123.501 263.45 123.16 262.328 123.16C261.575 123.16 260.897 123.344 260.293 123.714C259.696 124.083 259.224 124.598 258.876 125.259C258.535 125.912 258.365 126.665 258.365 127.517V138H256.468ZM288.836 138.341C287.309 138.341 285.988 137.986 284.873 137.276C283.758 136.558 282.895 135.567 282.284 134.303C281.681 133.032 281.379 131.569 281.379 129.914C281.379 128.266 281.681 126.803 282.284 125.525C282.895 124.239 283.737 123.234 284.809 122.51C285.889 121.778 287.135 121.413 288.548 121.413C289.436 121.413 290.292 121.576 291.116 121.903C291.94 122.222 292.678 122.716 293.332 123.384C293.992 124.044 294.514 124.879 294.898 125.887C295.281 126.888 295.473 128.075 295.473 129.445V130.383H282.689V128.71H293.534C293.534 127.659 293.321 126.714 292.895 125.876C292.476 125.031 291.89 124.364 291.137 123.874C290.392 123.384 289.529 123.138 288.548 123.138C287.512 123.138 286.599 123.415 285.811 123.969C285.022 124.523 284.404 125.255 283.957 126.164C283.517 127.073 283.293 128.067 283.286 129.147V130.148C283.286 131.448 283.509 132.585 283.957 133.558C284.411 134.523 285.054 135.273 285.885 135.805C286.716 136.338 287.7 136.604 288.836 136.604C289.61 136.604 290.289 136.484 290.871 136.242C291.46 136.001 291.954 135.678 292.352 135.273C292.757 134.861 293.062 134.41 293.268 133.92L295.068 134.506C294.82 135.195 294.411 135.83 293.843 136.413C293.282 136.995 292.579 137.464 291.734 137.819C290.896 138.167 289.93 138.341 288.836 138.341ZM302.805 135.017L302.614 136.157C302.493 136.924 302.322 137.769 302.102 138.692C301.882 139.616 301.655 140.493 301.42 141.324C301.186 142.155 300.984 142.822 300.813 143.327H299.354C299.446 142.844 299.563 142.229 299.705 141.484C299.854 140.738 300.007 139.911 300.163 139.001C300.32 138.099 300.462 137.169 300.589 136.21L300.739 135.017H302.805ZM42.0739 174.373C41.0866 174.373 40.1847 174.181 39.3679 173.798C38.5511 173.407 37.9013 172.846 37.4183 172.114C36.9354 171.376 36.6939 170.481 36.6939 169.43C36.6939 168.62 36.8466 167.938 37.152 167.384C37.4574 166.83 37.8906 166.376 38.4517 166.021C39.0128 165.665 39.6768 165.385 40.4439 165.179C41.2109 164.973 42.0561 164.813 42.9794 164.7C43.8956 164.586 44.6697 164.487 45.3018 164.401C45.9411 164.316 46.4276 164.181 46.7614 163.996C47.0952 163.812 47.2621 163.513 47.2621 163.102V162.718C47.2621 161.603 46.9283 160.726 46.2607 160.087C45.6001 159.44 44.6484 159.117 43.4055 159.117C42.2266 159.117 41.2642 159.376 40.5185 159.895C39.7798 160.413 39.2614 161.024 38.9631 161.727L37.1626 161.077C37.532 160.183 38.0433 159.469 38.6967 158.936C39.3501 158.396 40.0817 158.009 40.8913 157.775C41.701 157.533 42.5213 157.413 43.3523 157.413C43.9773 157.413 44.6271 157.494 45.3018 157.658C45.9837 157.821 46.6158 158.105 47.1982 158.51C47.7805 158.908 48.2528 159.465 48.6151 160.183C48.9773 160.893 49.1584 161.795 49.1584 162.888V174H47.2621V171.411H47.1449C46.9176 171.894 46.5803 172.363 46.1328 172.817C45.6854 173.272 45.1243 173.645 44.4496 173.936C43.7749 174.227 42.983 174.373 42.0739 174.373ZM42.3295 172.636C43.3381 172.636 44.2116 172.413 44.9503 171.965C45.6889 171.518 46.2571 170.925 46.6548 170.186C47.0597 169.44 47.2621 168.62 47.2621 167.725V165.36C47.12 165.495 46.8821 165.616 46.5483 165.722C46.2216 165.829 45.8416 165.925 45.4084 166.01C44.9822 166.088 44.5561 166.156 44.13 166.212C43.7038 166.269 43.3203 166.319 42.9794 166.362C42.0561 166.475 41.2678 166.653 40.6143 166.894C39.9609 167.136 39.4602 167.469 39.1122 167.896C38.7642 168.315 38.5902 168.854 38.5902 169.515C38.5902 170.509 38.9453 171.28 39.6555 171.827C40.3658 172.366 41.2571 172.636 42.3295 172.636ZM56.0991 163.773V174H54.2028V157.636H56.0458V160.204H56.2163C56.5998 159.366 57.1964 158.695 58.006 158.19C58.8228 157.679 59.8313 157.423 61.0316 157.423C62.1325 157.423 63.0984 157.654 63.9293 158.116C64.7674 158.57 65.4173 159.241 65.8789 160.129C66.3477 161.017 66.582 162.107 66.582 163.4V174H64.6857V163.517C64.6857 162.175 64.3093 161.113 63.5565 160.332C62.8107 159.55 61.8093 159.16 60.5522 159.16C59.6928 159.16 58.9293 159.344 58.2617 159.714C57.5941 160.083 57.065 160.616 56.6744 161.312C56.2908 162.001 56.0991 162.821 56.0991 163.773ZM77.4672 174.341C76.1248 174.341 74.9494 173.986 73.9409 173.276C72.9324 172.565 72.144 171.575 71.5758 170.303C71.0147 169.032 70.7342 167.551 70.7342 165.861C70.7342 164.178 71.0147 162.704 71.5758 161.44C72.144 160.168 72.9359 159.181 73.9515 158.478C74.9672 157.768 76.1497 157.413 77.4991 157.413C78.4934 157.413 79.3208 157.59 79.9814 157.945C80.6419 158.293 81.171 158.727 81.5687 159.245C81.9664 159.763 82.2754 160.268 82.4956 160.758H82.666V152.182H84.573V174H82.7193V170.964H82.4956C82.2754 171.461 81.9629 171.972 81.5581 172.498C81.1532 173.016 80.617 173.453 79.9494 173.808C79.2889 174.163 78.4615 174.341 77.4672 174.341ZM77.6909 172.604C78.7491 172.604 79.6511 172.317 80.3968 171.741C81.1426 171.159 81.7108 170.36 82.1014 169.344C82.4991 168.322 82.698 167.15 82.698 165.829C82.698 164.522 82.5027 163.368 82.112 162.366C81.7214 161.358 81.1532 160.57 80.4075 160.001C79.6618 159.426 78.7562 159.138 77.6909 159.138C76.5971 159.138 75.6738 159.437 74.921 160.033C74.1752 160.623 73.6071 161.422 73.2164 162.43C72.8329 163.439 72.6412 164.572 72.6412 165.829C72.6412 167.1 72.8365 168.247 73.2271 169.27C73.6177 170.293 74.1859 171.106 74.9316 171.71C75.6845 172.306 76.6042 172.604 77.6909 172.604ZM109.406 161.227L107.67 161.717C107.499 161.227 107.258 160.783 106.945 160.385C106.633 159.987 106.224 159.671 105.72 159.437C105.223 159.202 104.605 159.085 103.866 159.085C102.758 159.085 101.849 159.348 101.139 159.874C100.429 160.399 100.074 161.077 100.074 161.908C100.074 162.612 100.315 163.183 100.798 163.624C101.288 164.057 102.041 164.401 103.057 164.657L105.528 165.264C106.899 165.598 107.925 166.127 108.607 166.852C109.296 167.576 109.64 168.485 109.64 169.579C109.64 170.502 109.385 171.322 108.873 172.04C108.362 172.757 107.648 173.322 106.732 173.734C105.823 174.138 104.768 174.341 103.568 174.341C101.97 174.341 100.653 173.982 99.6156 173.265C98.5787 172.54 97.9146 171.496 97.6234 170.133L99.4451 169.685C99.6795 170.658 100.138 171.393 100.819 171.891C101.508 172.388 102.414 172.636 103.536 172.636C104.793 172.636 105.798 172.356 106.551 171.795C107.304 171.227 107.68 170.516 107.68 169.664C107.68 169.004 107.46 168.45 107.02 168.002C106.579 167.548 105.912 167.214 105.017 167.001L102.343 166.362C100.922 166.021 99.8713 165.481 99.1895 164.742C98.5076 164.004 98.1667 163.087 98.1667 161.994C98.1667 161.092 98.4118 160.3 98.9018 159.618C99.3919 158.929 100.067 158.389 100.926 157.999C101.785 157.608 102.765 157.413 103.866 157.413C105.365 157.413 106.562 157.754 107.456 158.435C108.358 159.11 109.008 160.04 109.406 161.227ZM120.153 174.341C118.739 174.341 117.489 173.982 116.403 173.265C115.323 172.548 114.478 171.557 113.867 170.293C113.256 169.021 112.951 167.555 112.951 165.893C112.951 164.217 113.256 162.743 113.867 161.472C114.478 160.193 115.323 159.199 116.403 158.489C117.489 157.771 118.739 157.413 120.153 157.413C121.566 157.413 122.812 157.771 123.892 158.489C124.972 159.206 125.817 160.2 126.428 161.472C127.045 162.743 127.354 164.217 127.354 165.893C127.354 167.555 127.049 169.021 126.438 170.293C125.827 171.557 124.979 172.548 123.892 173.265C122.812 173.982 121.566 174.341 120.153 174.341ZM120.153 172.604C121.289 172.604 122.251 172.299 123.04 171.688C123.828 171.077 124.425 170.264 124.83 169.249C125.241 168.233 125.447 167.114 125.447 165.893C125.447 164.671 125.241 163.549 124.83 162.526C124.425 161.504 123.828 160.683 123.04 160.065C122.251 159.447 121.289 159.138 120.153 159.138C119.023 159.138 118.061 159.447 117.266 160.065C116.477 160.683 115.877 161.504 115.465 162.526C115.06 163.549 114.858 164.671 114.858 165.893C114.858 167.114 115.06 168.233 115.465 169.249C115.877 170.264 116.477 171.077 117.266 171.688C118.054 172.299 119.016 172.604 120.153 172.604ZM146.347 174.341C144.884 174.341 143.609 173.975 142.522 173.244C141.443 172.512 140.605 171.511 140.008 170.239C139.411 168.968 139.113 167.519 139.113 165.893C139.113 164.252 139.415 162.793 140.019 161.514C140.629 160.236 141.475 159.234 142.554 158.51C143.634 157.778 144.887 157.413 146.315 157.413C147.409 157.413 148.399 157.626 149.287 158.052C150.175 158.471 150.906 159.064 151.482 159.831C152.064 160.591 152.43 161.479 152.579 162.494H150.661C150.463 161.571 149.983 160.783 149.223 160.129C148.47 159.469 147.512 159.138 146.347 159.138C145.303 159.138 144.379 159.423 143.577 159.991C142.774 160.552 142.146 161.337 141.691 162.345C141.244 163.347 141.02 164.508 141.02 165.829C141.02 167.157 141.24 168.332 141.681 169.355C142.121 170.371 142.739 171.166 143.534 171.741C144.337 172.317 145.274 172.604 146.347 172.604C147.071 172.604 147.732 172.469 148.328 172.2C148.932 171.923 149.436 171.532 149.841 171.028C150.253 170.523 150.53 169.923 150.672 169.227H152.59C152.448 170.214 152.096 171.095 151.535 171.869C150.981 172.636 150.26 173.24 149.372 173.68C148.492 174.121 147.483 174.341 146.347 174.341ZM161.224 174.373C160.237 174.373 159.335 174.181 158.518 173.798C157.702 173.407 157.052 172.846 156.569 172.114C156.086 171.376 155.844 170.481 155.844 169.43C155.844 168.62 155.997 167.938 156.302 167.384C156.608 166.83 157.041 166.376 157.602 166.021C158.163 165.665 158.827 165.385 159.594 165.179C160.361 164.973 161.206 164.813 162.13 164.7C163.046 164.586 163.82 164.487 164.452 164.401C165.091 164.316 165.578 164.181 165.912 163.996C166.246 163.812 166.412 163.513 166.412 163.102V162.718C166.412 161.603 166.079 160.726 165.411 160.087C164.751 159.44 163.799 159.117 162.556 159.117C161.377 159.117 160.415 159.376 159.669 159.895C158.93 160.413 158.412 161.024 158.113 161.727L156.313 161.077C156.682 160.183 157.194 159.469 157.847 158.936C158.501 158.396 159.232 158.009 160.042 157.775C160.851 157.533 161.672 157.413 162.503 157.413C163.128 157.413 163.778 157.494 164.452 157.658C165.134 157.821 165.766 158.105 166.349 158.51C166.931 158.908 167.403 159.465 167.765 160.183C168.128 160.893 168.309 161.795 168.309 162.888V174H166.412V171.411H166.295C166.068 171.894 165.731 172.363 165.283 172.817C164.836 173.272 164.275 173.645 163.6 173.936C162.925 174.227 162.133 174.373 161.224 174.373ZM161.48 172.636C162.488 172.636 163.362 172.413 164.101 171.965C164.839 171.518 165.407 170.925 165.805 170.186C166.21 169.44 166.412 168.62 166.412 167.725V165.36C166.27 165.495 166.032 165.616 165.699 165.722C165.372 165.829 164.992 165.925 164.559 166.01C164.133 166.088 163.706 166.156 163.28 166.212C162.854 166.269 162.471 166.319 162.13 166.362C161.206 166.475 160.418 166.653 159.765 166.894C159.111 167.136 158.611 167.469 158.263 167.896C157.915 168.315 157.741 168.854 157.741 169.515C157.741 170.509 158.096 171.28 158.806 171.827C159.516 172.366 160.407 172.636 161.48 172.636ZM175.249 163.773V174H173.353V157.636H175.196V160.204H175.367C175.75 159.366 176.347 158.695 177.156 158.19C177.973 157.679 178.982 157.423 180.182 157.423C181.283 157.423 182.249 157.654 183.08 158.116C183.918 158.57 184.568 159.241 185.029 160.129C185.498 161.017 185.732 162.107 185.732 163.4V174H183.836V163.517C183.836 162.175 183.46 161.113 182.707 160.332C181.961 159.55 180.96 159.16 179.703 159.16C178.843 159.16 178.08 159.344 177.412 159.714C176.744 160.083 176.215 160.616 175.825 161.312C175.441 162.001 175.249 162.821 175.249 163.773ZM199.558 174V152.182H201.465V160.758H201.635C201.848 160.268 202.154 159.763 202.551 159.245C202.956 158.727 203.485 158.293 204.139 157.945C204.799 157.59 205.63 157.413 206.632 157.413C207.974 157.413 209.153 157.768 210.169 158.478C211.184 159.181 211.976 160.168 212.544 161.44C213.113 162.704 213.397 164.178 213.397 165.861C213.397 167.551 213.113 169.032 212.544 170.303C211.983 171.575 211.195 172.565 210.179 173.276C209.171 173.986 207.999 174.341 206.664 174.341C205.669 174.341 204.838 174.163 204.171 173.808C203.51 173.453 202.978 173.016 202.573 172.498C202.168 171.972 201.855 171.461 201.635 170.964H201.401V174H199.558ZM201.433 165.829C201.433 167.15 201.628 168.322 202.019 169.344C202.417 170.36 202.985 171.159 203.723 171.741C204.469 172.317 205.371 172.604 206.429 172.604C207.516 172.604 208.436 172.306 209.189 171.71C209.941 171.106 210.513 170.293 210.904 169.27C211.294 168.247 211.49 167.1 211.49 165.829C211.49 164.572 211.294 163.439 210.904 162.43C210.52 161.422 209.952 160.623 209.199 160.033C208.446 159.437 207.523 159.138 206.429 159.138C205.364 159.138 204.458 159.426 203.713 160.001C202.974 160.57 202.409 161.358 202.019 162.366C201.628 163.368 201.433 164.522 201.433 165.829ZM224.178 174.341C222.651 174.341 221.33 173.986 220.215 173.276C219.1 172.558 218.237 171.567 217.626 170.303C217.022 169.032 216.721 167.569 216.721 165.914C216.721 164.266 217.022 162.803 217.626 161.525C218.237 160.239 219.078 159.234 220.151 158.51C221.23 157.778 222.477 157.413 223.89 157.413C224.778 157.413 225.634 157.576 226.458 157.903C227.282 158.222 228.02 158.716 228.674 159.384C229.334 160.044 229.856 160.879 230.24 161.887C230.623 162.888 230.815 164.075 230.815 165.445V166.383H218.031V164.71H228.876C228.876 163.659 228.663 162.714 228.237 161.876C227.818 161.031 227.232 160.364 226.479 159.874C225.733 159.384 224.87 159.138 223.89 159.138C222.853 159.138 221.941 159.415 221.152 159.969C220.364 160.523 219.746 161.255 219.299 162.164C218.858 163.073 218.635 164.067 218.627 165.147V166.148C218.627 167.448 218.851 168.585 219.299 169.558C219.753 170.523 220.396 171.273 221.227 171.805C222.058 172.338 223.042 172.604 224.178 172.604C224.952 172.604 225.63 172.484 226.213 172.242C226.802 172.001 227.296 171.678 227.694 171.273C228.098 170.861 228.404 170.41 228.61 169.92L230.41 170.506C230.162 171.195 229.753 171.83 229.185 172.413C228.624 172.995 227.921 173.464 227.076 173.819C226.238 174.167 225.272 174.341 224.178 174.341ZM254.426 161.227L252.689 161.717C252.519 161.227 252.277 160.783 251.965 160.385C251.652 159.987 251.244 159.671 250.74 159.437C250.242 159.202 249.624 159.085 248.886 159.085C247.778 159.085 246.869 159.348 246.159 159.874C245.448 160.399 245.093 161.077 245.093 161.908C245.093 162.612 245.335 163.183 245.818 163.624C246.308 164.057 247.061 164.401 248.076 164.657L250.548 165.264C251.919 165.598 252.945 166.127 253.627 166.852C254.316 167.576 254.66 168.485 254.66 169.579C254.66 170.502 254.404 171.322 253.893 172.04C253.382 172.757 252.668 173.322 251.752 173.734C250.843 174.138 249.788 174.341 248.588 174.341C246.99 174.341 245.672 173.982 244.635 173.265C243.598 172.54 242.934 171.496 242.643 170.133L244.465 169.685C244.699 170.658 245.157 171.393 245.839 171.891C246.528 172.388 247.433 172.636 248.556 172.636C249.813 172.636 250.818 172.356 251.57 171.795C252.323 171.227 252.7 170.516 252.7 169.664C252.7 169.004 252.48 168.45 252.039 168.002C251.599 167.548 250.931 167.214 250.036 167.001L247.362 166.362C245.942 166.021 244.891 165.481 244.209 164.742C243.527 164.004 243.186 163.087 243.186 161.994C243.186 161.092 243.431 160.3 243.921 159.618C244.411 158.929 245.086 158.389 245.945 157.999C246.805 157.608 247.785 157.413 248.886 157.413C250.384 157.413 251.581 157.754 252.476 158.435C253.378 159.11 254.028 160.04 254.426 161.227ZM263.382 174.373C262.395 174.373 261.493 174.181 260.676 173.798C259.86 173.407 259.21 172.846 258.727 172.114C258.244 171.376 258.002 170.481 258.002 169.43C258.002 168.62 258.155 167.938 258.461 167.384C258.766 166.83 259.199 166.376 259.76 166.021C260.321 165.665 260.985 165.385 261.752 165.179C262.52 164.973 263.365 164.813 264.288 164.7C265.204 164.586 265.978 164.487 266.61 164.401C267.25 164.316 267.736 164.181 268.07 163.996C268.404 163.812 268.571 163.513 268.571 163.102V162.718C268.571 161.603 268.237 160.726 267.569 160.087C266.909 159.44 265.957 159.117 264.714 159.117C263.535 159.117 262.573 159.376 261.827 159.895C261.088 160.413 260.57 161.024 260.272 161.727L258.471 161.077C258.841 160.183 259.352 159.469 260.005 158.936C260.659 158.396 261.39 158.009 262.2 157.775C263.01 157.533 263.83 157.413 264.661 157.413C265.286 157.413 265.936 157.494 266.61 157.658C267.292 157.821 267.924 158.105 268.507 158.51C269.089 158.908 269.561 159.465 269.924 160.183C270.286 160.893 270.467 161.795 270.467 162.888V174H268.571V171.411H268.453C268.226 171.894 267.889 172.363 267.441 172.817C266.994 173.272 266.433 173.645 265.758 173.936C265.083 174.227 264.292 174.373 263.382 174.373ZM263.638 172.636C264.647 172.636 265.52 172.413 266.259 171.965C266.998 171.518 267.566 170.925 267.963 170.186C268.368 169.44 268.571 168.62 268.571 167.725V165.36C268.429 165.495 268.191 165.616 267.857 165.722C267.53 165.829 267.15 165.925 266.717 166.01C266.291 166.088 265.865 166.156 265.439 166.212C265.012 166.269 264.629 166.319 264.288 166.362C263.365 166.475 262.576 166.653 261.923 166.894C261.27 167.136 260.769 167.469 260.421 167.896C260.073 168.315 259.899 168.854 259.899 169.515C259.899 170.509 260.254 171.28 260.964 171.827C261.674 172.366 262.566 172.636 263.638 172.636ZM282.244 157.636V159.288H274.201V157.636H282.244ZM276.715 174V155.239C276.715 154.359 276.918 153.616 277.322 153.013C277.734 152.409 278.271 151.951 278.931 151.638C279.592 151.326 280.291 151.17 281.03 151.17C281.527 151.17 281.939 151.212 282.266 151.298C282.599 151.376 282.862 151.454 283.054 151.532L282.5 153.194C282.358 153.151 282.184 153.102 281.978 153.045C281.772 152.988 281.513 152.96 281.2 152.96C280.376 152.96 279.741 153.19 279.293 153.652C278.846 154.114 278.622 154.774 278.622 155.634L278.612 174H276.715ZM291.971 174.341C290.444 174.341 289.123 173.986 288.008 173.276C286.893 172.558 286.03 171.567 285.419 170.303C284.815 169.032 284.513 167.569 284.513 165.914C284.513 164.266 284.815 162.803 285.419 161.525C286.03 160.239 286.871 159.234 287.944 158.51C289.023 157.778 290.27 157.413 291.683 157.413C292.571 157.413 293.427 157.576 294.251 157.903C295.075 158.222 295.813 158.716 296.467 159.384C297.127 160.044 297.649 160.879 298.033 161.887C298.416 162.888 298.608 164.075 298.608 165.445V166.383H285.824V164.71H296.669C296.669 163.659 296.456 162.714 296.03 161.876C295.611 161.031 295.025 160.364 294.272 159.874C293.526 159.384 292.663 159.138 291.683 159.138C290.646 159.138 289.734 159.415 288.945 159.969C288.157 160.523 287.539 161.255 287.092 162.164C286.651 163.073 286.428 164.067 286.42 165.147V166.148C286.42 167.448 286.644 168.585 287.092 169.558C287.546 170.523 288.189 171.273 289.02 171.805C289.851 172.338 290.835 172.604 291.971 172.604C292.745 172.604 293.423 172.484 294.006 172.242C294.595 172.001 295.089 171.678 295.487 171.273C295.891 170.861 296.197 170.41 296.403 169.92L298.203 170.506C297.955 171.195 297.546 171.83 296.978 172.413C296.417 172.995 295.714 173.464 294.869 173.819C294.031 174.167 293.065 174.341 291.971 174.341ZM304.683 152.182V174H302.787V152.182H304.683ZM311.022 180.136C310.645 180.136 310.294 180.101 309.967 180.03C309.64 179.959 309.381 179.881 309.189 179.795L309.701 178.123C310.347 178.322 310.922 178.393 311.427 178.336C311.931 178.286 312.378 178.059 312.769 177.654C313.16 177.256 313.508 176.646 313.813 175.822L314.41 174.16L308.39 157.636H310.447L315.305 171.496H315.454L320.312 157.636H322.368L315.443 176.589C315.152 177.377 314.793 178.034 314.367 178.56C313.941 179.092 313.447 179.487 312.886 179.742C312.332 180.005 311.711 180.136 311.022 180.136ZM43.8956 210.341C42.4325 210.341 41.1577 209.975 40.071 209.244C38.9915 208.512 38.1534 207.511 37.5568 206.239C36.9602 204.968 36.6619 203.519 36.6619 201.893C36.6619 200.252 36.9638 198.793 37.5675 197.514C38.1783 196.236 39.0234 195.234 40.103 194.51C41.1825 193.778 42.4361 193.413 43.8636 193.413C44.9574 193.413 45.9482 193.626 46.8359 194.052C47.7237 194.471 48.4553 195.064 49.0305 195.831C49.6129 196.591 49.9787 197.479 50.1278 198.494H48.2102C48.0114 197.571 47.532 196.783 46.772 196.129C46.0192 195.469 45.0604 195.138 43.8956 195.138C42.8516 195.138 41.9283 195.423 41.1257 195.991C40.3232 196.552 39.6946 197.337 39.2401 198.345C38.7926 199.347 38.5689 200.508 38.5689 201.829C38.5689 203.157 38.7891 204.332 39.2294 205.355C39.6697 206.371 40.2876 207.166 41.0831 207.741C41.8857 208.317 42.8232 208.604 43.8956 208.604C44.62 208.604 45.2805 208.469 45.8771 208.2C46.4808 207.923 46.9851 207.532 47.3899 207.028C47.8018 206.523 48.0788 205.923 48.2209 205.227H50.1385C49.9964 206.214 49.6449 207.095 49.0838 207.869C48.5298 208.636 47.8089 209.24 46.9212 209.68C46.0405 210.121 45.032 210.341 43.8956 210.341ZM58.7731 210.373C57.7859 210.373 56.8839 210.181 56.0671 209.798C55.2504 209.407 54.6005 208.846 54.1175 208.114C53.6346 207.376 53.3931 206.481 53.3931 205.43C53.3931 204.62 53.5458 203.938 53.8512 203.384C54.1566 202.83 54.5898 202.376 55.1509 202.021C55.712 201.665 56.3761 201.385 57.1431 201.179C57.9102 200.973 58.7553 200.813 59.6786 200.7C60.5948 200.586 61.369 200.487 62.0011 200.401C62.6403 200.316 63.1268 200.181 63.4606 199.996C63.7944 199.812 63.9613 199.513 63.9613 199.102V198.718C63.9613 197.603 63.6275 196.726 62.9599 196.087C62.2994 195.44 61.3477 195.117 60.1048 195.117C58.9258 195.117 57.9634 195.376 57.2177 195.895C56.479 196.413 55.9606 197.024 55.6623 197.727L53.8619 197.077C54.2312 196.183 54.7425 195.469 55.396 194.936C56.0494 194.396 56.7809 194.009 57.5906 193.775C58.4002 193.533 59.2205 193.413 60.0515 193.413C60.6765 193.413 61.3263 193.494 62.0011 193.658C62.6829 193.821 63.315 194.105 63.8974 194.51C64.4798 194.908 64.9521 195.465 65.3143 196.183C65.6765 196.893 65.8576 197.795 65.8576 198.888V210H63.9613V207.411H63.8441C63.6168 207.894 63.2795 208.363 62.832 208.817C62.3846 209.272 61.8235 209.645 61.1488 209.936C60.4741 210.227 59.6822 210.373 58.7731 210.373ZM59.0288 208.636C60.0373 208.636 60.9109 208.413 61.6495 207.965C62.3881 207.518 62.9563 206.925 63.354 206.186C63.7589 205.44 63.9613 204.62 63.9613 203.725V201.36C63.8192 201.495 63.5813 201.616 63.2475 201.722C62.9208 201.829 62.5408 201.925 62.1076 202.01C61.6815 202.088 61.2553 202.156 60.8292 202.212C60.4031 202.269 60.0195 202.319 59.6786 202.362C58.7553 202.475 57.967 202.653 57.3136 202.894C56.6602 203.136 56.1594 203.469 55.8114 203.896C55.4634 204.315 55.2894 204.854 55.2894 205.515C55.2894 206.509 55.6445 207.28 56.3548 207.827C57.065 208.366 57.9563 208.636 59.0288 208.636ZM77.294 210.341C75.831 210.341 74.5561 209.975 73.4695 209.244C72.3899 208.512 71.5518 207.511 70.9553 206.239C70.3587 204.968 70.0604 203.519 70.0604 201.893C70.0604 200.252 70.3622 198.793 70.9659 197.514C71.5767 196.236 72.4219 195.234 73.5014 194.51C74.581 193.778 75.8345 193.413 77.2621 193.413C78.3558 193.413 79.3466 193.626 80.2344 194.052C81.1222 194.471 81.8537 195.064 82.429 195.831C83.0114 196.591 83.3771 197.479 83.5263 198.494H81.6087C81.4098 197.571 80.9304 196.783 80.1705 196.129C79.4176 195.469 78.4588 195.138 77.294 195.138C76.25 195.138 75.3267 195.423 74.5241 195.991C73.7216 196.552 73.093 197.337 72.6385 198.345C72.1911 199.347 71.9673 200.508 71.9673 201.829C71.9673 203.157 72.1875 204.332 72.6278 205.355C73.0682 206.371 73.6861 207.166 74.4815 207.741C75.2841 208.317 76.2216 208.604 77.294 208.604C78.0185 208.604 78.679 208.469 79.2756 208.2C79.8793 207.923 80.3835 207.532 80.7884 207.028C81.2003 206.523 81.4773 205.923 81.6193 205.227H83.5369C83.3949 206.214 83.0433 207.095 82.4822 207.869C81.9283 208.636 81.2074 209.24 80.3196 209.68C79.4389 210.121 78.4304 210.341 77.294 210.341ZM89.4975 199.773V210H87.6012V188.182H89.4975V196.204H89.668C90.0515 195.359 90.6445 194.684 91.4471 194.18C92.2567 193.675 93.2795 193.423 94.5153 193.423C95.6232 193.423 96.5962 193.651 97.4343 194.105C98.2724 194.56 98.9258 195.231 99.3945 196.119C99.8633 197.006 100.098 198.1 100.098 199.4V210H98.1907V199.517C98.1907 198.168 97.8143 197.106 97.0614 196.332C96.3157 195.55 95.3072 195.16 94.0359 195.16C93.1623 195.16 92.3846 195.344 91.7028 195.714C91.021 196.083 90.4812 196.616 90.0835 197.312C89.6928 198.001 89.4975 198.821 89.4975 199.773ZM111.707 210.341C110.18 210.341 108.859 209.986 107.744 209.276C106.629 208.558 105.766 207.567 105.155 206.303C104.552 205.032 104.25 203.569 104.25 201.914C104.25 200.266 104.552 198.803 105.155 197.525C105.766 196.239 106.608 195.234 107.68 194.51C108.76 193.778 110.006 193.413 111.42 193.413C112.307 193.413 113.163 193.576 113.987 193.903C114.811 194.222 115.55 194.716 116.203 195.384C116.863 196.044 117.385 196.879 117.769 197.887C118.153 198.888 118.344 200.075 118.344 201.445V202.383H105.56V200.71H116.405C116.405 199.659 116.192 198.714 115.766 197.876C115.347 197.031 114.761 196.364 114.008 195.874C113.263 195.384 112.4 195.138 111.42 195.138C110.383 195.138 109.47 195.415 108.682 195.969C107.893 196.523 107.275 197.255 106.828 198.164C106.388 199.073 106.164 200.067 106.157 201.147V202.148C106.157 203.448 106.381 204.585 106.828 205.558C107.282 206.523 107.925 207.273 108.756 207.805C109.587 208.338 110.571 208.604 111.707 208.604C112.481 208.604 113.16 208.484 113.742 208.242C114.331 208.001 114.825 207.678 115.223 207.273C115.628 206.861 115.933 206.41 116.139 205.92L117.939 206.506C117.691 207.195 117.282 207.83 116.714 208.413C116.153 208.995 115.45 209.464 114.605 209.819C113.767 210.167 112.801 210.341 111.707 210.341ZM128.414 210.341C127.072 210.341 125.897 209.986 124.888 209.276C123.88 208.565 123.091 207.575 122.523 206.303C121.962 205.032 121.681 203.551 121.681 201.861C121.681 200.178 121.962 198.704 122.523 197.44C123.091 196.168 123.883 195.181 124.899 194.478C125.914 193.768 127.097 193.413 128.446 193.413C129.441 193.413 130.268 193.59 130.929 193.945C131.589 194.293 132.118 194.727 132.516 195.245C132.914 195.763 133.223 196.268 133.443 196.758H133.613V188.182H135.52V210H133.667V206.964H133.443C133.223 207.461 132.91 207.972 132.505 208.498C132.1 209.016 131.564 209.453 130.897 209.808C130.236 210.163 129.409 210.341 128.414 210.341ZM128.638 208.604C129.696 208.604 130.598 208.317 131.344 207.741C132.09 207.159 132.658 206.36 133.049 205.344C133.446 204.322 133.645 203.15 133.645 201.829C133.645 200.522 133.45 199.368 133.059 198.366C132.669 197.358 132.1 196.57 131.355 196.001C130.609 195.426 129.703 195.138 128.638 195.138C127.544 195.138 126.621 195.437 125.868 196.033C125.123 196.623 124.554 197.422 124.164 198.43C123.78 199.439 123.588 200.572 123.588 201.829C123.588 203.1 123.784 204.247 124.174 205.27C124.565 206.293 125.133 207.106 125.879 207.71C126.632 208.306 127.551 208.604 128.638 208.604ZM157.466 193.636V197.045H147.367V193.636H157.466ZM149.679 210V192.454C149.679 191.268 149.909 190.284 150.371 189.503C150.84 188.722 151.479 188.136 152.289 187.745C153.098 187.354 154.018 187.159 155.048 187.159C155.744 187.159 156.38 187.212 156.955 187.319C157.537 187.425 157.971 187.521 158.255 187.607L157.445 191.016C157.267 190.959 157.047 190.906 156.784 190.856C156.529 190.806 156.266 190.781 155.996 190.781C155.328 190.781 154.863 190.938 154.6 191.25C154.338 191.555 154.206 191.985 154.206 192.539V210H149.679ZM167.046 210.32C165.392 210.32 163.96 209.968 162.753 209.265C161.553 208.555 160.626 207.567 159.972 206.303C159.319 205.032 158.992 203.558 158.992 201.882C158.992 200.192 159.319 198.714 159.972 197.45C160.626 196.179 161.553 195.192 162.753 194.489C163.96 193.778 165.392 193.423 167.046 193.423C168.701 193.423 170.129 193.778 171.329 194.489C172.536 195.192 173.467 196.179 174.12 197.45C174.774 198.714 175.1 200.192 175.1 201.882C175.1 203.558 174.774 205.032 174.12 206.303C173.467 207.567 172.536 208.555 171.329 209.265C170.129 209.968 168.701 210.32 167.046 210.32ZM167.068 206.804C167.82 206.804 168.449 206.591 168.953 206.165C169.458 205.732 169.838 205.142 170.093 204.396C170.356 203.651 170.487 202.802 170.487 201.85C170.487 200.898 170.356 200.05 170.093 199.304C169.838 198.558 169.458 197.969 168.953 197.536C168.449 197.102 167.82 196.886 167.068 196.886C166.308 196.886 165.669 197.102 165.15 197.536C164.639 197.969 164.252 198.558 163.989 199.304C163.733 200.05 163.605 200.898 163.605 201.85C163.605 202.802 163.733 203.651 163.989 204.396C164.252 205.142 164.639 205.732 165.15 206.165C165.669 206.591 166.308 206.804 167.068 206.804ZM178.051 210V193.636H182.451V196.491H182.622C182.92 195.476 183.421 194.709 184.124 194.19C184.827 193.665 185.637 193.402 186.553 193.402C186.78 193.402 187.025 193.416 187.288 193.445C187.551 193.473 187.781 193.512 187.98 193.562V197.589C187.767 197.525 187.472 197.468 187.096 197.418C186.72 197.369 186.375 197.344 186.063 197.344C185.395 197.344 184.798 197.489 184.273 197.781C183.754 198.065 183.343 198.462 183.037 198.974C182.739 199.485 182.59 200.075 182.59 200.742V210H178.051ZM197.022 210.32C195.339 210.32 193.89 209.979 192.676 209.297C191.468 208.608 190.538 207.635 189.885 206.378C189.231 205.114 188.904 203.619 188.904 201.893C188.904 200.21 189.231 198.732 189.885 197.461C190.538 196.19 191.458 195.199 192.644 194.489C193.837 193.778 195.236 193.423 196.841 193.423C197.921 193.423 198.926 193.597 199.856 193.945C200.794 194.286 201.61 194.801 202.306 195.49C203.01 196.179 203.556 197.045 203.947 198.089C204.338 199.126 204.533 200.341 204.533 201.733V202.979H190.716V200.167H200.261C200.261 199.513 200.119 198.935 199.835 198.43C199.551 197.926 199.157 197.532 198.652 197.248C198.155 196.957 197.576 196.811 196.916 196.811C196.227 196.811 195.616 196.971 195.083 197.29C194.558 197.603 194.146 198.026 193.848 198.558C193.549 199.084 193.397 199.67 193.39 200.316V202.99C193.39 203.8 193.539 204.499 193.837 205.089C194.142 205.678 194.572 206.133 195.126 206.452C195.68 206.772 196.337 206.932 197.097 206.932C197.601 206.932 198.063 206.861 198.482 206.719C198.901 206.577 199.26 206.364 199.558 206.08C199.856 205.795 200.083 205.447 200.24 205.036L204.437 205.312C204.224 206.321 203.787 207.202 203.127 207.955C202.473 208.7 201.628 209.283 200.591 209.702C199.561 210.114 198.372 210.32 197.022 210.32ZM222.311 193.636L216.59 210H211.476L205.756 193.636H210.55L213.948 205.344H214.118L217.506 193.636H222.311ZM231.563 210.32C229.88 210.32 228.431 209.979 227.217 209.297C226.009 208.608 225.079 207.635 224.426 206.378C223.772 205.114 223.445 203.619 223.445 201.893C223.445 200.21 223.772 198.732 224.426 197.461C225.079 196.19 225.999 195.199 227.185 194.489C228.378 193.778 229.777 193.423 231.382 193.423C232.462 193.423 233.467 193.597 234.397 193.945C235.335 194.286 236.151 194.801 236.847 195.49C237.551 196.179 238.097 197.045 238.488 198.089C238.879 199.126 239.074 200.341 239.074 201.733V202.979H225.257V200.167H234.802C234.802 199.513 234.66 198.935 234.376 198.43C234.092 197.926 233.698 197.532 233.193 197.248C232.696 196.957 232.117 196.811 231.457 196.811C230.768 196.811 230.157 196.971 229.624 197.29C229.099 197.603 228.687 198.026 228.389 198.558C228.09 199.084 227.938 199.67 227.931 200.316V202.99C227.931 203.8 228.08 204.499 228.378 205.089C228.683 205.678 229.113 206.133 229.667 206.452C230.221 206.772 230.878 206.932 231.638 206.932C232.142 206.932 232.604 206.861 233.023 206.719C233.442 206.577 233.801 206.364 234.099 206.08C234.397 205.795 234.624 205.447 234.781 205.036L238.978 205.312C238.765 206.321 238.328 207.202 237.668 207.955C237.014 208.7 236.169 209.283 235.132 209.702C234.102 210.114 232.913 210.32 231.563 210.32ZM242.036 210V193.636H246.436V196.491H246.606C246.904 195.476 247.405 194.709 248.108 194.19C248.811 193.665 249.621 193.402 250.537 193.402C250.764 193.402 251.009 193.416 251.272 193.445C251.535 193.473 251.766 193.512 251.965 193.562V197.589C251.752 197.525 251.457 197.468 251.08 197.418C250.704 197.369 250.36 197.344 250.047 197.344C249.379 197.344 248.783 197.489 248.257 197.781C247.739 198.065 247.327 198.462 247.021 198.974C246.723 199.485 246.574 200.075 246.574 200.742V210H242.036ZM256.516 210.16C256.097 210.16 255.735 210.011 255.43 209.712C255.131 209.407 254.982 209.045 254.982 208.626C254.982 208.2 255.131 207.837 255.43 207.539C255.735 207.241 256.097 207.092 256.516 207.092C256.942 207.092 257.305 207.241 257.603 207.539C257.901 207.837 258.05 208.2 258.05 208.626C258.05 208.903 257.979 209.158 257.837 209.393C257.702 209.627 257.518 209.815 257.283 209.957C257.056 210.092 256.8 210.16 256.516 210.16Z" fill="black"/>
</g>
<defs>
<linearGradient id="paint0_linear_105_3" x1="220.5" y1="8.65139e-06" x2="423.5" y2="256" gradientUnits="userSpaceOnUse">
<stop stop-color="#00F0FF"/>
<stop offset="0.714063" stop-color="white"/>
<stop offset="0.9999" stop-color="#82E405"/>
</linearGradient>
<clipPath id="clip0_105_3">
<rect width="418" height="256" fill="white"/>
</clipPath>
</defs>
</svg>
